<svg version="1.1"
	width="190" height="100"
	xmlns="http://www.w3.org/2000/svg">
	<rect width="100%" height="100%" fill="white" />
	<line x1="0" y1="3.84615" x2="190" y2="3.84615" stroke="red" stroke-width="7.69231" />
	<line x1="0" y1="19.2308" x2="190" y2="19.2308" stroke="red" stroke-width="7.69231" />
	<line x1="0" y1="34.6154" x2="190" y2="34.6154" stroke="red" stroke-width="7.69231" />
	<line x1="0" y1="50" x2="190" y2="50" stroke="red" stroke-width="7.69231" />
	<line x1="0" y1="65.3846" x2="190" y2="65.3846" stroke="red" stroke-width="7.69231" />
	<line x1="0" y1="80.7692" x2="190" y2="80.7692" stroke="red" stroke-width="7.69231" />
	<line x1="0" y1="96.1538" x2="190" y2="96.1538" stroke="red" stroke-width="7.69231" />
	<rect width="76" height="53.8462" stroke="blue" fill="blue" />
	<polygon points="6.33334,3.38462 7.50891,7.00264 4.4312,4.76663 8.23542,4.76652 5.15784,7.00271 6.3332,3.38462 " stroke="white" fill="white" />
	<polygon points="19,3.38462 20.1756,7.00264 17.0979,4.76663 20.9021,4.76652 17.8245,7.00271 18.9999,3.38462 " stroke="white" fill="white" />
	<polygon points="31.6667,3.38462 32.8422,7.00264 29.7645,4.76663 33.5687,4.76652 30.4912,7.00271 31.6665,3.38462 " stroke="white" fill="white" />
	<polygon points="44.3333,3.38462 45.5089,7.00264 42.4312,4.76663 46.2354,4.76652 43.1578,7.00271 44.3332,3.38462 " stroke="white" fill="white" />
	<polygon points="57,3.38462 58.1756,7.00264 55.0978,4.76663 58.9021,4.76652 55.8245,7.00271 56.9998,3.38462 " stroke="white" fill="white" />
	<polygon points="69.6666,3.38462 70.8422,7.00264 67.7645,4.76663 71.5687,4.76652 68.4911,7.00271 69.6665,3.38462 " stroke="white" fill="white" />
	<polygon points="6.33334,14.1539 7.50891,17.7719 4.4312,15.5359 8.23542,15.5358 5.15784,17.772 6.3332,14.1539 " stroke="white" fill="white" />
	<polygon points="19,14.1539 20.1756,17.7719 17.0979,15.5359 20.9021,15.5358 17.8245,17.772 18.9999,14.1539 " stroke="white" fill="white" />
	<polygon points="31.6667,14.1539 32.8422,17.7719 29.7645,15.5359 33.5687,15.5358 30.4912,17.772 31.6665,14.1539 " stroke="white" fill="white" />
	<polygon points="44.3333,14.1539 45.5089,17.7719 42.4312,15.5359 46.2354,15.5358 43.1578,17.772 44.3332,14.1539 " stroke="white" fill="white" />
	<polygon points="57,14.1539 58.1756,17.7719 55.0978,15.5359 58.9021,15.5358 55.8245,17.772 56.9998,14.1539 " stroke="white" fill="white" />
	<polygon points="69.6666,14.1539 70.8422,17.7719 67.7645,15.5359 71.5687,15.5358 68.4911,17.772 69.6665,14.1539 " stroke="white" fill="white" />
	<polygon points="6.33334,24.9231 7.50891,28.5411 4.4312,26.3051 8.23542,26.305 5.15784,28.5412 6.3332,24.9231 " stroke="white" fill="white" />
	<polygon points="19,24.9231 20.1756,28.5411 17.0979,26.3051 20.9021,26.305 17.8245,28.5412 18.9999,24.9231 " stroke="white" fill="white" />
	<polygon points="31.6667,24.9231 32.8422,28.5411 29.7645,26.3051 33.5687,26.305 30.4912,28.5412 31.6665,24.9231 " stroke="white" fill="white" />
	<polygon points="44.3333,24.9231 45.5089,28.5411 42.4312,26.3051 46.2354,26.305 43.1578,28.5412 44.3332,24.9231 " stroke="white" fill="white" />
	<polygon points="57,24.9231 58.1756,28.5411 55.0978,26.3051 58.9021,26.305 55.8245,28.5412 56.9998,24.9231 " stroke="white" fill="white" />
	<polygon points="69.6666,24.9231 70.8422,28.5411 67.7645,26.3051 71.5687,26.305 68.4911,28.5412 69.6665,24.9231 " stroke="white" fill="white" />
	<polygon points="6.33334,35.6923 7.50891,39.3104 4.4312,37.0743 8.23542,37.0742 5.15784,39.3104 6.3332,35.6923 " stroke="white" fill="white" />
	<polygon points="19,35.6923 20.1756,39.3104 17.0979,37.0743 20.9021,37.0742 17.8245,39.3104 18.9999,35.6923 " stroke="white" fill="white" />
	<polygon points="31.6667,35.6923 32.8422,39.3104 29.7645,37.0743 33.5687,37.0742 30.4912,39.3104 31.6665,35.6923 " stroke="white" fill="white" />
	<polygon points="44.3333,35.6923 45.5089,39.3104 42.4312,37.0743 46.2354,37.0742 43.1578,39.3104 44.3332,35.6923 " stroke="white" fill="white" />
	<polygon points="57,35.6923 58.1756,39.3104 55.0978,37.0743 58.9021,37.0742 55.8245,39.3104 56.9998,35.6923 " stroke="white" fill="white" />
	<polygon points="69.6666,35.6923 70.8422,39.3104 67.7645,37.0743 71.5687,37.0742 68.4911,39.3104 69.6665,35.6923 " stroke="white" fill="white" />
	<polygon points="6.33334,46.4616 7.50891,50.0796 4.4312,47.8436 8.23542,47.8435 5.15784,50.0797 6.3332,46.4616 " stroke="white" fill="white" />
	<polygon points="19,46.4616 20.1756,50.0796 17.0979,47.8436 20.9021,47.8435 17.8245,50.0797 18.9999,46.4616 " stroke="white" fill="white" />
	<polygon points="31.6667,46.4616 32.8422,50.0796 29.7645,47.8436 33.5687,47.8435 30.4912,50.0797 31.6665,46.4616 " stroke="white" fill="white" />
	<polygon points="44.3333,46.4616 45.5089,50.0796 42.4312,47.8436 46.2354,47.8435 43.1578,50.0797 44.3332,46.4616 " stroke="white" fill="white" />
	<polygon points="57,46.4616 58.1756,50.0796 55.0978,47.8436 58.9021,47.8435 55.8245,50.0797 56.9998,46.4616 " stroke="white" fill="white" />
	<polygon points="69.6666,46.4616 70.8422,50.0796 67.7645,47.8436 71.5687,47.8435 68.4911,50.0797 69.6665,46.4616 " stroke="white" fill="white" />
	<polygon points="12.6667,8.76924 13.8422,12.3873 10.7645,10.1512 14.5688,10.1511 11.4912,12.3873 12.6665,8.76924 " stroke="white" fill="white" />
	<polygon points="25.3333,8.76924 26.5089,12.3873 23.4312,10.1512 27.2354,10.1511 24.1578,12.3873 25.3332,8.76924 " stroke="white" fill="white" />
	<polygon points="38,8.76924 39.1756,12.3873 36.0979,10.1512 39.9021,10.1511 36.8245,12.3873 37.9999,8.76924 " stroke="white" fill="white" />
	<polygon points="50.6667,8.76924 51.8422,12.3873 48.7645,10.1512 52.5687,10.1511 49.4912,12.3873 50.6665,8.76924 " stroke="white" fill="white" />
	<polygon points="63.3333,8.76924 64.5089,12.3873 61.4312,10.1512 65.2354,10.1511 62.1578,12.3873 63.3332,8.76924 " stroke="white" fill="white" />
	<polygon points="12.6667,19.5385 13.8422,23.1565 10.7645,20.9205 14.5688,20.9204 11.4912,23.1566 12.6665,19.5385 " stroke="white" fill="white" />
	<polygon points="25.3333,19.5385 26.5089,23.1565 23.4312,20.9205 27.2354,20.9204 24.1578,23.1566 25.3332,19.5385 " stroke="white" fill="white" />
	<polygon points="38,19.5385 39.1756,23.1565 36.0979,20.9205 39.9021,20.9204 36.8245,23.1566 37.9999,19.5385 " stroke="white" fill="white" />
	<polygon points="50.6667,19.5385 51.8422,23.1565 48.7645,20.9205 52.5687,20.9204 49.4912,23.1566 50.6665,19.5385 " stroke="white" fill="white" />
	<polygon points="63.3333,19.5385 64.5089,23.1565 61.4312,20.9205 65.2354,20.9204 62.1578,23.1566 63.3332,19.5385 " stroke="white" fill="white" />
	<polygon points="12.6667,30.3077 13.8422,33.9257 10.7645,31.6897 14.5688,31.6896 11.4912,33.9258 12.6665,30.3077 " stroke="white" fill="white" />
	<polygon points="25.3333,30.3077 26.5089,33.9257 23.4312,31.6897 27.2354,31.6896 24.1578,33.9258 25.3332,30.3077 " stroke="white" fill="white" />
	<polygon points="38,30.3077 39.1756,33.9257 36.0979,31.6897 39.9021,31.6896 36.8245,33.9258 37.9999,30.3077 " stroke="white" fill="white" />
	<polygon points="50.6667,30.3077 51.8422,33.9257 48.7645,31.6897 52.5687,31.6896 49.4912,33.9258 50.6665,30.3077 " stroke="white" fill="white" />
	<polygon points="63.3333,30.3077 64.5089,33.9257 61.4312,31.6897 65.2354,31.6896 62.1578,33.9258 63.3332,30.3077 " stroke="white" fill="white" />
	<polygon points="12.6667,41.077 13.8422,44.695 10.7645,42.459 14.5688,42.4589 11.4912,44.6951 12.6665,41.077 " stroke="white" fill="white" />
	<polygon points="25.3333,41.077 26.5089,44.695 23.4312,42.459 27.2354,42.4589 24.1578,44.6951 25.3332,41.077 " stroke="white" fill="white" />
	<polygon points="38,41.077 39.1756,44.695 36.0979,42.459 39.9021,42.4589 36.8245,44.6951 37.9999,41.077 " stroke="white" fill="white" />
	<polygon points="50.6667,41.077 51.8422,44.695 48.7645,42.459 52.5687,42.4589 49.4912,44.6951 50.6665,41.077 " stroke="white" fill="white" />
	<polygon points="63.3333,41.077 64.5089,44.695 61.4312,42.459 65.2354,42.4589 62.1578,44.6951 63.3332,41.077 " stroke="white" fill="white" />
</svg>
